{"title":"Kid Racer 2010 DvDRip XviD Ac3 Feel-Free","uid":5824005,"size":1111185540,"categoryP":"video","categoryS":"movies","magnet":"?xt=urn:btih:380fdc4d821cb88fad121f6c9821f47afc5e63da&amp;dn=+Kid+Racer+2010+DvDRip+XviD+Ac3+Feel-Free&amp;tr=udp%3A%2F%2Ftracker.openbittorrent.com%3A80&amp;tr=udp%3A%2F%2Fopen.demonii.com%3A1337&amp;tr=udp%3A%2F%2Ftracker.coppersurfer.tk%3A6969&amp;tr=udp%3A%2F%2Fexodus.desync.com%3A6969","seeders":0,"leechers":1,"uploader":"neon","files":-1,"time":1284189101,"description":"Plot\nFourteen year old go racecar enthusiast Marc Benton (Randy Shelly) attempts to raise enough money to buy his own go cart and compete in a local go cart race. Though at first it looks like Marc's dream is a long shot, his goal comes into reach when he befriends kindly track manager Buddy (Priscilla Barnes) and lands a job repairing race-damaged go carts. Over time, with a little help from Buddy, Marc learns that being a true champion takes much more than fast reflexes alone.\n &lt;a href=&quot;\nhttp://www.starshare.ro/bitbucket/vlcsnap2010-09-11-06h47m40s218.jpg&quot; rel=&quot;nofollow&quot; target=&quot;_NEW&quot;&gt;\nhttp://www.starshare.ro/bitbucket/vlcsnap2010-09-11-06h47m40s218.jpg&lt;/a&gt;\n &lt;a href=&quot;\nhttp://www.starshare.ro/bitbucket/vlcsnap2010-09-11-06h47m44s17.jpg&quot; rel=&quot;nofollow&quot; target=&quot;_NEW&quot;&gt;\nhttp://www.starshare.ro/bitbucket/vlcsnap2010-09-11-06h47m44s17.jpg&lt;/a&gt;\n &lt;a href=&quot;\nhttp://www.starshare.ro/bitbucket/vlcsnap2010-09-11-06h47m48s59.jpg&quot; rel=&quot;nofollow&quot; target=&quot;_NEW&quot;&gt;\nhttp://www.starshare.ro/bitbucket/vlcsnap2010-09-11-06h47m48s59.jpg&lt;/a&gt;\n\nGenre:Comedy\nLanguage: English\n &lt;a href=&quot; http://www.imdb.com/title/tt1715823/&quot; rel=&quot;nofollow&quot; target=&quot;_NEW&quot;&gt; http://www.imdb.com/title/tt1715823/&lt;/a&gt;\nSource:DVD\n\nGeneral\nComplete name :Kid Racer 2010 DvDRip XviD Ac3 Feel-Free\nFormat : AVI\nFormat/Info : Audio Video Interleave\nFile size : 1.03 GiB\nDuration : 1h 20mn\nOverall bit rate : 1 848 Kbps\nVideo #0\nCodec ID : XVID\nCodec ID/Hint : XviD\nDuration : 1h 20mn\nBit rate : 1 517 Kbps\nWidth : 640 pixels\nHeight : 352 pixels\nDisplay aspect ratio : 16:9\nFrame rate : 29.970 fps\nResolution : 24 bits\nColorimetry : 4:2:0\nScan type : Progressive\nBits/(Pixel*Frame) : 0.225\nStream size : 869 MiB (82%)\nWriting library : XviD 1.2.1 (UTC 2008-12-04)\nAudio #1\nID : 1\nFormat : AC-3\nFormat/Info : Audio Coding 3\nCodec ID : 2000\nDuration : 1h 20mn\nBit rate mode : Constant\nBit rate : 320 Kbps\nChannel(s) : 6 channels\nChannel positions : Front: L C R, Surround: L R, LFE\nSampling rate : 48.0 KHz\nStream size : 183 MiB (17%)\nAlignment : Split accross interleaves\nInterleave, duration : 33 ms (1.00 video frame)\nInterleave, preload duration : 500 ms","torrent":{"xt":"urn:btih:380fdc4d821cb88fad121f6c9821f47afc5e63da","amp;dn":"+Kid+Racer+2010+DvDRip+XviD+Ac3+Feel-Free","amp;tr":["udp%3A%2F%2Ftracker.openbittorrent.com%3A80","udp%3A%2F%2Fopen.demonii.com%3A1337","udp%3A%2F%2Ftracker.coppersurfer.tk%3A6969","udp%3A%2F%2Fexodus.desync.com%3A6969"],"infoHash":"380fdc4d821cb88fad121f6c9821f47afc5e63da","infoHashBuffer":{"type":"Buffer","data":[56,15,220,77,130,28,184,143,173,18,31,108,152,33,244,122,252,94,99,218]},"announce":[],"urlList":[]}}